# xmcd CD database file
#
# Track frame offsets:
#	150
#	12715
#	25207
#	39028
#	50912
#	69398
#	84060
#	99120
#	111586
#	127499
#	141491
#	160981
#	176796
#	190532
#	203369
#	216948
#	227358
#
# Disc length: 3190 seconds
#
# Revision: 0
# Processed by: cddbd v1.5.2PL0 Copyright (c) Steve Scherf et al.
# Submitted via: CDex 1.70beta2
#
DISCID=e90c7411
DTITLE=Max De Bernardi - These blues won't let me rest
DYEAR=1900
DGENRE=Blues
TTITLE0=Greasy greens
TTITLE1=Rolling blues
TTITLE2=Hard pushin'papa
TTITLE3=Sportin'life blues
TTITLE4=When I been drinking
TTITLE5=Champagne Charlie
TTITLE6=Diving duck blues
TTITLE7=It won't be long
TTITLE8=Pawnshop blues
TTITLE9=Brown's ferry blues
TTITLE10=Prison bound
TTITLE11=Stop breaking down
TTITLE12=Walkin'my trouble away
TTITLE13=Blue railroad train
TTITLE14=Georgia bound
TTITLE15=Custard pie
TTITLE16=Truckin'my blues away
EXTD=
EXTT0=
EXTT1=
EXTT2=
EXTT3=
EXTT4=
EXTT5=
EXTT6=
EXTT7=
EXTT8=
EXTT9=
EXTT10=
EXTT11=
EXTT12=
EXTT13=
EXTT14=
EXTT15=
EXTT16=
PLAYORDER=
